<svg id="Capa_1" data-name="Capa 1" xmlns="http://www.w3.org/2000/svg" viewBox="0 0 515.99 82.87"><defs><style>.cls-1{fill:#faf9f8;}</style></defs><title>oclok logo</title><path class="cls-1" d="M177.89,301.9a45.41,45.41,0,0,1-22.26-5.32,39.12,39.12,0,0,1-15.16-14.65,44.4,44.4,0,0,1,0-42.81,39.16,39.16,0,0,1,15.1-14.65,44.87,44.87,0,0,1,22.1-5.33,45.07,45.07,0,0,1,22.2,5.33A39.18,39.18,0,0,1,215,239.12a44.69,44.69,0,0,1,.06,42.81,38.89,38.89,0,0,1-15,14.65A44.86,44.86,0,0,1,177.89,301.9Zm0-19.46a20.81,20.81,0,0,0,10.88-2.8,19.53,19.53,0,0,0,7.32-7.73,25.54,25.54,0,0,0-.05-22.72,19.83,19.83,0,0,0-7.44-7.78,21.1,21.1,0,0,0-10.93-2.81,20.85,20.85,0,0,0-10.82,2.81,19.69,19.69,0,0,0-7.44,7.78,23.52,23.52,0,0,0-2.69,11.39,22.77,22.77,0,0,0,2.75,11.33,20.31,20.31,0,0,0,7.49,7.73A21.09,21.09,0,0,0,177.89,282.44Z" transform="translate(-134.97 -219.03)"/><path class="cls-1" d="M222.19,237.11l12.59-16.71h21.75l-14.88,16.71Z" transform="translate(-134.97 -219.03)"/><path class="cls-1" d="M299,301.9a41.65,41.65,0,0,1-21.23-5.32,38.44,38.44,0,0,1-14.48-14.65,46.43,46.43,0,0,1,0-42.93,38.44,38.44,0,0,1,14.48-14.65,45.11,45.11,0,0,1,37.94-2.12,38.09,38.09,0,0,1,12.82,8.93,39.73,39.73,0,0,1,8.25,13.28l-20.15,6.41a23.46,23.46,0,0,0-4.12-6.58,17.2,17.2,0,0,0-5.89-4.29,18.6,18.6,0,0,0-7.62-1.49,17.91,17.91,0,0,0-9.95,2.8,19.21,19.21,0,0,0-6.82,7.73,25.26,25.26,0,0,0-2.46,11.44,24.86,24.86,0,0,0,2.52,11.39,19.37,19.37,0,0,0,6.93,7.79,18.42,18.42,0,0,0,10.13,2.8,17.87,17.87,0,0,0,7.72-1.54,16.29,16.29,0,0,0,5.61-4.35,29.21,29.21,0,0,0,4.07-6.58l20.14,6.4a38.73,38.73,0,0,1-8.13,13.34,37.36,37.36,0,0,1-12.93,9A42.82,42.82,0,0,1,299,301.9Z" transform="translate(-134.97 -219.03)"/><path class="cls-1" d="M344.09,300.53V220.4h21.18v60.67h33v19.46Z" transform="translate(-134.97 -219.03)"/><path class="cls-1" d="M443.79,301.9a45.42,45.42,0,0,1-22.27-5.32,39.18,39.18,0,0,1-15.16-14.65,44.4,44.4,0,0,1,0-42.81,39.18,39.18,0,0,1,15.11-14.65,48.67,48.67,0,0,1,44.29,0,39.18,39.18,0,0,1,15.11,14.65,44.62,44.62,0,0,1,.06,42.81,38.89,38.89,0,0,1-15.05,14.65A44.85,44.85,0,0,1,443.79,301.9Zm0-19.46a20.77,20.77,0,0,0,10.87-2.8,19.62,19.62,0,0,0,7.33-7.73,25.59,25.59,0,0,0-.06-22.72,19.76,19.76,0,0,0-7.44-7.78,21.1,21.1,0,0,0-10.93-2.81,20.88,20.88,0,0,0-10.82,2.81,19.69,19.69,0,0,0-7.44,7.78,23.63,23.63,0,0,0-2.69,11.39,22.87,22.87,0,0,0,2.75,11.33,20.26,20.26,0,0,0,7.5,7.73A21.07,21.07,0,0,0,443.79,282.44Z" transform="translate(-134.97 -219.03)"/><path class="cls-1" d="M531.69,301.9a41.65,41.65,0,0,1-21.23-5.32A38.44,38.44,0,0,1,496,281.93,46.43,46.43,0,0,1,496,239a38.44,38.44,0,0,1,14.48-14.65,45.11,45.11,0,0,1,37.94-2.12,38.09,38.09,0,0,1,12.82,8.93,39.73,39.73,0,0,1,8.25,13.28l-20.15,6.41a23.46,23.46,0,0,0-4.12-6.58,17.2,17.2,0,0,0-5.89-4.29,18.6,18.6,0,0,0-7.62-1.49,17.91,17.91,0,0,0-10,2.8,19.21,19.21,0,0,0-6.82,7.73,25.26,25.26,0,0,0-2.46,11.44A24.86,24.86,0,0,0,515,271.85a19.37,19.37,0,0,0,6.93,7.79,18.42,18.42,0,0,0,10.13,2.8,17.87,17.87,0,0,0,7.72-1.54,16.29,16.29,0,0,0,5.61-4.35,28.86,28.86,0,0,0,4.07-6.58l20.14,6.4a38.73,38.73,0,0,1-8.13,13.34,37.36,37.36,0,0,1-12.93,9A42.82,42.82,0,0,1,531.69,301.9Z" transform="translate(-134.97 -219.03)"/><path class="cls-1" d="M576.79,300.53V220.4H598v80.13Zm11.9-13.62V257.26l33.43-36.86h27.81Zm35.95,13.62-31-40.75,15.91-12.36L651,300.53Z" transform="translate(-134.97 -219.03)"/></svg>